<svg width="325" height="128" viewBox="0 0 325 128" fill="none" xmlns="http://www.w3.org/2000/svg">
<g clip-path="url(#clip0_80_308)">
<path d="M78.7875 15.75C81.4425 15.3675 84.255 18.27 85.065 22.275C85.875 26.2575 84.4125 29.8125 81.7575 30.2175C79.125 30.6225 76.29 27.72 75.4575 23.715C74.625 19.7325 76.1325 16.1775 78.7875 15.75ZM94.875 15.75C97.5525 16.1775 99.0375 19.7325 98.25 23.715C97.395 27.72 94.5825 30.6225 91.9275 30.2175C89.25 29.8125 87.7875 26.2575 88.62 22.275C89.43 18.27 92.2425 15.3675 94.875 15.75ZM66.75 26.1C69.315 24.9975 72.8025 27 74.625 30.4875C76.335 34.0425 75.75 37.7775 73.2075 38.88C70.665 39.9825 67.2 38.0025 65.4225 34.47C63.645 30.9375 64.275 27.18 66.75 26.1ZM107.25 26.1C109.725 27.18 110.355 30.9375 108.578 34.47C106.8 38.0025 103.335 39.9825 100.793 38.88C98.25 37.7775 97.665 34.0425 99.375 30.4875C101.198 27 104.685 24.9975 107.25 26.1ZM103.493 50.355C103.583 52.47 101.963 54.81 100.028 55.6875C96 57.5325 91.23 53.7075 86.7525 53.7075C82.275 53.7075 77.46 57.69 73.5 55.6875C71.25 54.585 69.6975 51.66 69.99 49.23C70.395 45.8775 74.4225 44.0775 76.8075 41.625C79.98 38.4525 82.23 32.49 86.7525 32.49C91.2525 32.49 93.6375 38.3625 96.675 41.625C99.1725 44.37 103.335 46.6875 103.493 50.355Z" fill="#002846"/>
<path d="M98.7045 78.21C103.298 78.21 106.895 79.5967 109.495 82.37C112.138 85.1433 113.46 88.935 113.46 93.745V115H100.72V95.435C100.72 93.485 100.178 91.9683 99.0945 90.885C98.0112 89.8017 96.5379 89.26 94.6745 89.26C92.8112 89.26 91.3379 89.8017 90.2545 90.885C89.1712 91.9683 88.6295 93.485 88.6295 95.435V115H75.8895V95.435C75.8895 93.485 75.3479 91.9683 74.2645 90.885C73.2245 89.8017 71.7729 89.26 69.9095 89.26C68.0029 89.26 66.5079 89.8017 65.4245 90.885C64.3412 91.9683 63.7995 93.485 63.7995 95.435V115H51.0595V78.535H63.7995V83.345C64.9262 81.785 66.3779 80.55 68.1545 79.64C69.9745 78.6867 72.0545 78.21 74.3945 78.21C77.0812 78.21 79.4645 78.795 81.5445 79.965C83.6679 81.135 85.3362 82.7817 86.5495 84.905C87.8495 82.9117 89.5612 81.3083 91.6845 80.095C93.8079 78.8383 96.1479 78.21 98.7045 78.21ZM119.659 96.735C119.659 92.965 120.331 89.6717 121.674 86.855C123.061 84.0383 124.924 81.8717 127.264 80.355C129.648 78.8383 132.291 78.08 135.194 78.08C137.708 78.08 139.874 78.5783 141.694 79.575C143.514 80.5717 144.923 81.915 145.919 83.605V78.535H158.659V115H145.919V109.93C144.923 111.62 143.493 112.963 141.629 113.96C139.809 114.957 137.664 115.455 135.194 115.455C132.291 115.455 129.648 114.697 127.264 113.18C124.924 111.663 123.061 109.497 121.674 106.68C120.331 103.82 119.659 100.505 119.659 96.735ZM145.919 96.735C145.919 94.395 145.269 92.5533 143.969 91.21C142.713 89.8667 141.153 89.195 139.289 89.195C137.383 89.195 135.801 89.8667 134.544 91.21C133.288 92.51 132.659 94.3517 132.659 96.735C132.659 99.075 133.288 100.938 134.544 102.325C135.801 103.668 137.383 104.34 139.289 104.34C141.153 104.34 142.713 103.668 143.969 102.325C145.269 100.982 145.919 99.1183 145.919 96.735ZM188.734 104.145V115H183.209C173.892 115 169.234 110.385 169.234 101.155V89.13H164.749V78.535H169.234V69.695H182.039V78.535H188.669V89.13H182.039V101.35C182.039 102.347 182.256 103.062 182.689 103.495C183.166 103.928 183.946 104.145 185.029 104.145H188.734ZM193.797 96.735C193.797 92.965 194.577 89.6717 196.137 86.855C197.697 84.0383 199.864 81.8717 202.637 80.355C205.454 78.8383 208.661 78.08 212.257 78.08C216.894 78.08 220.794 79.3583 223.957 81.915C227.121 84.4283 229.157 87.96 230.067 92.51H216.547C215.767 90.1267 214.251 88.935 211.997 88.935C210.394 88.935 209.116 89.6067 208.162 90.95C207.252 92.25 206.797 94.1783 206.797 96.735C206.797 99.2917 207.252 101.242 208.162 102.585C209.116 103.928 210.394 104.6 211.997 104.6C214.294 104.6 215.811 103.408 216.547 101.025H230.067C229.157 105.532 227.121 109.063 223.957 111.62C220.794 114.177 216.894 115.455 212.257 115.455C208.661 115.455 205.454 114.697 202.637 113.18C199.864 111.663 197.697 109.497 196.137 106.68C194.577 103.863 193.797 100.548 193.797 96.735ZM260.645 78.21C264.805 78.21 268.098 79.6183 270.525 82.435C272.995 85.2083 274.23 88.9783 274.23 93.745V115H261.49V95.435C261.49 93.355 260.948 91.73 259.865 90.56C258.782 89.3467 257.33 88.74 255.51 88.74C253.603 88.74 252.108 89.3467 251.025 90.56C249.942 91.73 249.4 93.355 249.4 95.435V115H236.66V66.9H249.4V83.735C250.527 82.0883 252.043 80.7667 253.95 79.77C255.9 78.73 258.132 78.21 260.645 78.21Z" fill="#7DC9FF"/>
<path d="M57.1244 25.45C57.1244 28.2233 56.4744 30.7583 55.1744 33.055C53.9177 35.3083 51.9894 37.1283 49.3894 38.515C46.8327 39.8583 43.6911 40.53 39.9644 40.53H33.6594V56H20.9194V10.175H39.9644C43.6477 10.175 46.7677 10.825 49.3244 12.125C51.9244 13.425 53.8744 15.2233 55.1744 17.52C56.4744 19.8167 57.1244 22.46 57.1244 25.45ZM38.7294 30.39C42.3261 30.39 44.1244 28.7433 44.1244 25.45C44.1244 22.1133 42.3261 20.445 38.7294 20.445H33.6594V30.39H38.7294ZM172.393 19.535L163.098 56H148.798L143.728 33.9L138.463 56H124.228L114.998 19.535H127.673L131.768 43.715L137.163 19.535H150.813L156.403 43.78L160.433 19.535H172.393ZM197.013 30.13H191.293V56H178.488V30.13H174.523V19.535H178.488V19.21C178.488 14.53 179.853 10.955 182.583 8.485C185.356 5.97167 189.321 4.715 194.478 4.715C195.518 4.715 196.32 4.73666 196.883 4.78V15.635C196.536 15.5917 196.06 15.57 195.453 15.57C194.066 15.57 193.048 15.895 192.398 16.545C191.748 17.1517 191.38 18.1483 191.293 19.535H197.013V30.13ZM237.706 37.345C237.706 38.3417 237.641 39.3383 237.511 40.335H213.396C213.526 42.3283 214.068 43.8233 215.021 44.82C216.018 45.7733 217.274 46.25 218.791 46.25C220.914 46.25 222.431 45.2967 223.341 43.39H236.926C236.363 45.9033 235.258 48.1567 233.611 50.15C232.008 52.1 229.971 53.6383 227.501 54.765C225.031 55.8917 222.301 56.455 219.311 56.455C215.714 56.455 212.508 55.6967 209.691 54.18C206.918 52.6633 204.729 50.4967 203.126 47.68C201.566 44.8633 200.786 41.5483 200.786 37.735C200.786 33.9217 201.566 30.6283 203.126 27.855C204.686 25.0383 206.853 22.8717 209.626 21.355C212.443 19.8383 215.671 19.08 219.311 19.08C222.908 19.08 226.093 19.8167 228.866 21.29C231.639 22.7633 233.806 24.8867 235.366 27.66C236.926 30.39 237.706 33.6183 237.706 37.345ZM224.706 34.16C224.706 32.6 224.186 31.3867 223.146 30.52C222.106 29.61 220.806 29.155 219.246 29.155C217.686 29.155 216.408 29.5883 215.411 30.455C214.414 31.2783 213.764 32.5133 213.461 34.16H224.706ZM242.14 37.735C242.14 33.965 242.92 30.6717 244.48 27.855C246.04 25.0383 248.206 22.8717 250.98 21.355C253.796 19.8383 257.003 19.08 260.6 19.08C265.236 19.08 269.136 20.3583 272.3 22.915C275.463 25.4283 277.5 28.96 278.41 33.51H264.89C264.11 31.1267 262.593 29.935 260.34 29.935C258.736 29.935 257.458 30.6067 256.505 31.95C255.595 33.25 255.14 35.1783 255.14 37.735C255.14 40.2917 255.595 42.2417 256.505 43.585C257.458 44.9283 258.736 45.6 260.34 45.6C262.636 45.6 264.153 44.4083 264.89 42.025H278.41C277.5 46.5317 275.463 50.0633 272.3 52.62C269.136 55.1767 265.236 56.455 260.6 56.455C257.003 56.455 253.796 55.6967 250.98 54.18C248.206 52.6633 246.04 50.4967 244.48 47.68C242.92 44.8633 242.14 41.5483 242.14 37.735ZM306.517 45.145V56H300.992C291.676 56 287.017 51.385 287.017 42.155V30.13H282.532V19.535H287.017V10.695H299.822V19.535H306.452V30.13H299.822V42.35C299.822 43.3467 300.039 44.0617 300.472 44.495C300.949 44.9283 301.729 45.145 302.812 45.145H306.517Z" fill="#7DC9FF"/>
</g>
<defs>
<clipPath id="clip0_80_308">
<rect width="325" height="128" fill="white"/>
</clipPath>
</defs>
</svg>
