<svg width="450" height="450" viewBox="0 0 450 450" fill="none" xmlns="http://www.w3.org/2000/svg">
<rect width="450" height="450" fill="#C1C1C1"/>
<path d="M158.692 61.5C180.128 58.4117 202.837 81.8467 209.377 114.183C215.917 146.338 204.108 175.042 182.672 178.312C161.417 181.582 138.527 158.147 131.805 125.81C125.083 93.655 137.255 64.9517 158.692 61.5ZM288.583 61.5C310.202 64.9517 322.192 93.655 315.833 125.81C308.93 158.147 286.222 181.582 264.785 178.312C243.167 175.042 231.358 146.338 238.08 114.183C244.62 81.8467 267.328 58.4117 288.583 61.5ZM61.5 145.067C82.21 136.165 110.368 152.333 125.083 180.492C138.89 209.195 134.167 239.352 113.638 248.253C93.11 257.155 65.1334 241.168 50.7817 212.647C36.4301 184.125 41.5167 153.787 61.5 145.067ZM388.5 145.067C408.483 153.787 413.57 184.125 399.218 212.647C384.867 241.168 356.89 257.155 336.362 248.253C315.833 239.352 311.11 209.195 324.917 180.492C339.632 152.333 367.79 136.165 388.5 145.067ZM358.162 340.903C358.888 357.98 345.808 376.873 330.185 383.958C297.667 398.855 259.153 367.972 223.002 367.972C186.85 367.972 147.973 400.127 116 383.958C97.8334 375.057 85.2984 351.44 87.66 331.82C90.93 304.752 123.448 290.218 142.705 270.417C168.32 244.802 186.487 196.66 223.002 196.66C259.335 196.66 278.592 244.075 303.117 270.417C323.282 292.58 356.89 311.292 358.162 340.903Z" fill="#196136"/>
</svg>
